<?xml version="1.0" encoding="UTF-8"?>
<svg width="16px" height="16px" viewBox="0 0 16 16" version="1.1" xmlns="http://www.w3.org/2000/svg" xmlns:xlink="http://www.w3.org/1999/xlink">
    <!-- Generator: Sketch 52.4 (67378) - http://www.bohemiancoding.com/sketch -->
    <title>Foundation/Icon/16px/calendar</title>
    <desc>Created with Sketch.</desc>
    <g id="Foundation/Icon/16px/calendar" stroke="none" stroke-width="1" fill="none" fill-rule="evenodd">
        <path d="M2,6.45238095 L14,6.45238095 L14,4.4887619 C14,4.35032253 13.8877727,4.23809524 13.7493333,4.23809524 L11.6818182,4.23809524 L11.6818182,5.0952381 C11.6818182,5.37138047 11.4579606,5.5952381 11.1818182,5.5952381 C10.9056758,5.5952381 10.6818182,5.37138047 10.6818182,5.0952381 L10.6818182,4.23809524 L5.31818182,4.23809524 L5.31818182,5.0952381 C5.31818182,5.37138047 5.09432419,5.5952381 4.81818182,5.5952381 C4.54203944,5.5952381 4.31818182,5.37138047 4.31818182,5.0952381 L4.31818182,4.23809524 L2.25066667,4.23809524 C2.11222729,4.23809524 2,4.35032253 2,4.4887619 L2,6.45238095 Z M2,7.45238095 L2,13.7493333 C2,13.8877727 2.11222729,14 2.25066667,14 L13.7493333,14 C13.8877727,14 14,13.8877727 14,13.7493333 L14,7.45238095 L2,7.45238095 Z M11.6818182,3.23809524 L13.7493333,3.23809524 C14.4400575,3.23809524 15,3.79803778 15,4.4887619 L15,13.7493333 C15,14.4400575 14.4400575,15 13.7493333,15 L2.25066667,15 C1.55994254,15 1,14.4400575 1,13.7493333 L1,4.4887619 C1,3.79803778 1.55994254,3.23809524 2.25066667,3.23809524 L4.31818182,3.23809524 L4.31818182,2 C4.31818182,1.72385763 4.54203944,1.5 4.81818182,1.5 C5.09432419,1.5 5.31818182,1.72385763 5.31818182,2 L5.31818182,3.23809524 L10.6818182,3.23809524 L10.6818182,2 C10.6818182,1.72385763 10.9056758,1.5 11.1818182,1.5 C11.4579606,1.5 11.6818182,1.72385763 11.6818182,2 L11.6818182,3.23809524 Z" id="Shape" fill="#1F2532"></path>
    </g>
</svg>