<?xml version="1.0" encoding="UTF-8"?>
<svg width="34px" height="20px" viewBox="0 0 34 20" version="1.1" xmlns="http://www.w3.org/2000/svg" xmlns:xlink="http://www.w3.org/1999/xlink">
    <!-- Generator: Sketch 52.3 (67297) - http://www.bohemiancoding.com/sketch -->
    <title>Shape</title>
    <desc>Created with Sketch.</desc>
    <g id="All-explorations" stroke="none" stroke-width="1" fill="none" fill-rule="evenodd">
        <g id="Visual-Design-exploration-1A-Copy-52" transform="translate(-15.000000, -199.000000)" fill="#38404F" fill-rule="nonzero" stroke="#FFFFFF" stroke-width="0.5">
            <g id="Group-6" transform="translate(16.000000, 199.000000)">
                <g id="noun_Engine_1664660_000000">
                    <path d="M2,5.22 L2,13.82 C2,14.3722847 1.55228475,14.82 1,14.82 C0.44771525,14.82 0,14.3722847 0,13.82 L0,5.22 C0,4.66771525 0.44771525,4.22 1,4.22 C1.55228475,4.22 2,4.66771525 2,5.22 Z M32,9.5 L32,18.17 C32,18.7222847 31.5522847,19.17 31,19.17 C30.4477153,19.17 30,18.7222847 30,18.17 L30,14.82 L27.235,14.82 L27.235,18.585 C27.235,19.1372847 26.7872847,19.585 26.235,19.585 L13,19.585 C12.7680656,19.5842927 12.5435892,19.5029863 12.365,19.355 L8,15.8 L5,15.8 C4.44771525,15.8 4,15.3522847 4,14.8 L4,5.22 C4,4.66771525 4.44771525,4.22 5,4.22 L14.14,4.22 C14.1373288,4.16836786 14.1373288,4.11663214 14.14,4.065 L14.14,2.415 L11.185,2.415 C10.6327153,2.415 10.185,1.96728475 10.185,1.415 C10.185,0.86271525 10.6327153,0.415 11.185,0.415 L19.07,0.415 C19.6222847,0.415 20.07,0.86271525 20.07,1.415 C20.07,1.96728475 19.6222847,2.415 19.07,2.415 L16.125,2.415 L16.125,4.065 C16.1301796,4.11653685 16.1301796,4.16846315 16.125,4.22 L22.665,4.22 C23.2172847,4.22 23.665,4.66771525 23.665,5.22 L23.665,7.845 L26.235,7.845 C26.7872847,7.845 27.235,8.29271525 27.235,8.845 L27.235,12.845 L30,12.845 L30,9.5 C30,8.94771525 30.4477153,8.5 31,8.5 C31.5522847,8.5 32,8.94771525 32,9.5 Z M25.235,9.87 L22.665,9.87 C22.1127153,9.87 21.665,9.42228475 21.665,8.87 L21.665,6.22 L6,6.22 L6,13.8 L8.38,13.8 C8.61193439,13.8007073 8.83641077,13.8820137 9.015,14.03 L13.345,17.585 L25.235,17.585 L25.235,9.87 Z" id="Shape"></path>
                </g>
            </g>
        </g>
    </g>
</svg>